# xmcd
#
# Track frame offsets:
#	150
#	13636
#	27110
#	43026
#	57503
#	68307
#	84442
#	98501
#	111232
#	125339
#	140556
#	157134
#
# Disc length: 2256 seconds
#
# Revision: 1
# Processed by: cddbd v1.5.2PL0 Copyright (c) Steve Scherf et al.
# Submitted via: audiograbber 1.83.01
#
DISCID=9608ce0c
DTITLE=Romana and Josef - Josmana
DYEAR=1900
DGENRE=Volksmusik
TTITLE0=Hab einmal Zeit für mich
TTITLE1=Ich möcht der Knopf an deiner Bluse sein
TTITLE2=Bleib heut bei mir
TTITLE3=Was ist Glück?
TTITLE4=Lady Sunshine
TTITLE5=Buona Notte
TTITLE6=Der Millionär
TTITLE7=Happy
TTITLE8=My special Prayer
TTITLE9=Draussen vor der Tür
TTITLE10=Liebesmelodie
TTITLE11=Goodbye, Aufwiedersehen
EXTD=
EXTT0=
EXTT1=
EXTT2=
EXTT3=
EXTT4=
EXTT5=
EXTT6=
EXTT7=
EXTT8=
EXTT9=
EXTT10=
EXTT11=
PLAYORDER=
